<?xml version="1.0" standalone="no"?>
<!DOCTYPE svg PUBLIC "-//W3C//DTD SVG 20010904//EN"
 "http://www.w3.org/TR/2001/REC-SVG-20010904/DTD/svg10.dtd">
<svg version="1.0" xmlns="http://www.w3.org/2000/svg"
 width="500.000000pt" height="250.000000pt" viewBox="0 0 500.000000 250.000000"
 preserveAspectRatio="xMidYMid meet">

<g transform="translate(0.000000,250.000000) scale(0.100000,-0.100000)"
fill="#000000" stroke="none">
<path d="M0 1250 l0 -1250 2500 0 2500 0 0 1250 0 1250 -2500 0 -2500 0 0
-1250z m2570 420 l0 -320 -40 0 -40 0 -1 273 c-1 149 -4 283 -8 297 -4 17 -17
28 -39 35 -18 5 -32 15 -32 22 0 10 21 13 80 13 l80 0 0 -320z m486 293 c54
-28 79 -74 79 -145 0 -62 -17 -94 -69 -132 -22 -17 -45 -22 -127 -24 l-99 -4
0 -155 0 -154 -42 3 -43 3 -3 290 c-2 315 -2 315 -59 315 -23 0 -29 10 -15 24
4 5 82 6 173 4 142 -4 173 -8 205 -25z m1222 11 c47 -32 13 -114 -42 -100 -49
12 -58 82 -13 104 29 14 29 14 55 -4z m-748 -16 c55 -24 82 -60 88 -116 5 -60
-17 -113 -60 -140 l-30 -19 38 -20 c63 -32 79 -63 79 -148 0 -70 -2 -76 -33
-108 -45 -46 -85 -57 -234 -64 l-128 -6 0 284 c0 310 -3 329 -56 329 -15 0
-24 6 -24 16 0 15 17 16 163 12 114 -4 172 -9 197 -20z m479 -186 c47 -23 72
-61 78 -116 l6 -46 -137 0 -138 0 7 -67 c14 -148 33 -166 166 -167 63 0 89 -4
89 -13 0 -24 -97 -37 -169 -23 -101 19 -157 90 -168 210 -6 64 15 151 46 188
43 51 154 68 220 34z m279 -261 c-3 -262 -4 -281 -23 -306 -24 -32 -71 -62
-82 -52 -4 4 1 21 10 36 15 25 17 62 17 289 0 279 1 272 -51 272 -10 0 -19 4
-19 9 0 9 79 27 128 30 l23 1 -3 -279z m378 264 c55 -23 64 -58 64 -239 0
-146 1 -156 20 -166 11 -6 25 -8 30 -5 6 3 10 0 10 -8 0 -20 -60 -30 -95 -17
-15 6 -29 19 -32 30 -7 25 -11 25 -39 -1 -30 -28 -90 -41 -137 -28 -69 18 -97
101 -57 166 25 42 62 60 149 74 l71 12 0 61 c0 79 -17 106 -69 106 -42 0 -61
-14 -61 -45 0 -29 -28 -65 -50 -65 -11 0 -27 11 -35 24 -50 76 117 149 231
101z m-1636 -668 c0 -7 -13 -21 -30 -30 -35 -21 -39 -13 -8 20 24 26 38 29 38
10z m-2745 -112 l0 -115 -25 0 -25 0 3 106 c3 80 0 109 -10 115 -8 6 -1 9 22
9 l35 0 0 -115z m1845 105 c70 -37 31 -130 -55 -130 -22 0 -25 -4 -25 -33 0
-18 5 -38 12 -45 9 -9 5 -12 -17 -12 l-30 0 3 101 c2 67 -1 105 -9 115 -10 12
-3 14 45 14 32 0 66 -5 76 -10z m-1698 -112 l57 -63 1 51 c0 27 -5 55 -12 62
-9 9 -6 12 13 12 24 0 25 -1 21 -72 -5 -124 0 -120 -70 -48 l-63 65 3 -58 c3
-54 2 -57 -21 -57 -20 0 -22 2 -11 15 9 11 11 37 8 85 -4 48 -2 70 6 70 6 0
37 -28 68 -62z m258 41 c0 -18 -3 -19 -14 -9 -20 16 -60 9 -64 -11 -2 -10 12
-22 38 -34 40 -18 60 -51 45 -75 -21 -35 -115 -33 -115 1 0 18 1 19 25 3 24
-15 65 -12 65 6 0 12 -29 40 -42 40 -20 0 -48 33 -48 56 0 29 24 43 73 44 31
0 37 -3 37 -21z m210 -1 c0 -17 -3 -19 -12 -10 -7 7 -20 12 -31 12 -17 0 -18
-7 -15 -75 l3 -75 -30 0 c-22 0 -26 3 -17 12 7 7 12 39 12 75 0 59 -1 63 -23
63 -13 0 -28 -5 -35 -12 -9 -9 -12 -7 -12 10 0 21 4 22 80 22 76 0 80 -1 80
-22z m102 10 c-16 -16 -16 -130 0 -146 9 -9 5 -12 -17 -12 l-30 0 0 85 0 85
30 0 c22 0 26 -3 17 -12z m218 -8 c0 -11 -4 -20 -10 -20 -5 0 -10 5 -10 10 0
6 -11 10 -25 10 -24 0 -25 -2 -25 -63 0 -36 5 -68 12 -75 9 -9 5 -12 -18 -12
l-29 0 3 75 c4 68 3 75 -15 75 -10 0 -24 -5 -31 -12 -9 -9 -12 -7 -12 10 0 21
4 22 80 22 73 0 80 -2 80 -20z m95 -51 c0 -83 14 -102 60 -81 26 12 27 15 23
82 -3 69 -2 70 22 70 19 0 21 -3 12 -12 -7 -7 -12 -37 -12 -67 0 -31 -4 -61
-8 -68 -12 -18 -61 -34 -87 -27 -37 9 -47 29 -54 104 -7 70 -7 70 19 70 24 0
25 -2 25 -71z m325 49 c0 -17 -3 -19 -12 -10 -7 7 -22 12 -35 12 -22 0 -23 -4
-23 -63 0 -36 5 -68 12 -75 9 -9 5 -12 -17 -12 l-30 0 3 75 c3 68 2 75 -15 75
-11 0 -24 -5 -31 -12 -9 -9 -12 -7 -12 10 0 21 4 22 80 22 76 0 80 -1 80 -22z
m194 -3 c34 -31 35 -83 3 -121 -34 -39 -100 -40 -133 -1 -26 31 -31 82 -11
108 35 45 100 52 141 14z m521 0 c35 -34 34 -93 -1 -126 -36 -34 -99 -32 -131
5 -32 38 -30 81 6 117 38 38 91 40 126 4z m137 13 c-7 -7 -12 -39 -12 -75 l0
-63 33 0 c18 0 39 6 46 13 10 10 12 8 9 -8 -3 -17 -12 -20 -63 -23 l-60 -3 0
86 0 85 30 0 c22 0 26 -3 17 -12z m178 -3 c-8 -10 -11 -39 -8 -85 3 -65 2 -70
-17 -70 -19 0 -20 5 -17 70 2 45 -1 76 -8 85 -11 13 -7 15 25 15 32 0 36 -2
25 -15z m210 -7 c0 -17 -3 -19 -12 -10 -7 7 -20 12 -31 12 -17 0 -18 -7 -15
-75 l3 -75 -30 0 c-22 0 -26 3 -17 12 7 7 12 39 12 75 0 59 -1 63 -23 63 -13
0 -28 -5 -35 -12 -9 -9 -12 -7 -12 10 0 21 4 22 80 22 76 0 80 -1 80 -22z
m180 8 c0 -10 -11 -12 -46 -8 -45 5 -46 5 -42 -24 3 -26 7 -29 36 -28 20 1 32
-3 32 -11 0 -8 -12 -12 -32 -11 -29 1 -33 -2 -36 -28 -3 -28 -3 -28 42 -24 32
2 46 -1 46 -9 0 -9 -19 -13 -62 -13 l-63 0 0 85 0 85 63 0 c46 0 62 -4 62 -14z
m194 8 c9 -3 16 -12 16 -20 0 -16 -16 -19 -25 -4 -8 13 -51 13 -75 0 -41 -22
-31 -101 16 -122 21 -10 31 -9 55 4 27 16 29 16 29 -1 0 -21 -47 -33 -93 -24
-73 14 -90 129 -23 161 24 12 77 15 100 6z m157 -56 l58 -63 1 51 c0 27 -5 55
-12 62 -9 9 -6 12 16 12 22 0 27 -4 22 -16 -3 -9 -6 -47 -6 -85 0 -48 -4 -69
-12 -69 -7 0 -39 28 -70 62 l-57 63 -1 -51 c0 -27 5 -55 12 -62 9 -9 7 -12
-12 -12 -25 0 -25 1 -25 85 0 65 3 85 14 85 7 0 40 -28 72 -62z m204 -23 c0
-84 0 -85 -25 -85 -25 0 -25 1 -25 85 0 84 0 85 25 85 25 0 25 -1 25 -85z
m199 79 c9 -3 16 -13 16 -20 0 -11 -4 -12 -19 -4 -51 27 -101 -1 -101 -57 0
-60 42 -84 103 -58 12 5 17 3 17 -8 0 -20 -59 -30 -98 -16 -64 22 -78 107 -25
149 25 20 75 26 107 14z m220 -20 c34 -35 35 -83 2 -121 -52 -60 -156 -19
-156 60 1 78 98 117 154 61z m-500 -283 c20 -17 21 -65 1 -81 -14 -11 -13 -14
5 -27 13 -9 20 -25 20 -48 0 -45 -29 -65 -95 -65 l-50 0 0 121 0 121 52 -4
c28 -3 59 -10 67 -17z m-487 -73 c23 -21 30 -67 17 -103 -10 -24 -58 -45 -107
-45 l-44 0 5 70 c3 46 1 75 -7 84 -10 12 -7 15 21 19 52 7 90 -1 115 -25z
m213 6 c0 -17 -12 -18 -27 -3 -6 6 -21 9 -34 7 -18 -2 -25 -10 -27 -32 -4 -28
-2 -29 32 -23 27 4 36 2 36 -9 0 -9 -11 -14 -35 -14 -32 0 -35 -2 -35 -30 0
-27 3 -30 33 -30 18 0 39 6 46 13 10 10 12 8 9 -8 -3 -17 -12 -20 -63 -23
l-60 -3 0 83 0 83 55 5 c63 6 70 4 70 -16z m480 0 c0 -17 -12 -18 -27 -3 -6 6
-21 9 -34 7 -18 -2 -25 -10 -27 -32 -4 -28 -2 -29 32 -23 27 4 36 2 36 -9 0
-9 -11 -14 -35 -14 -32 0 -35 -2 -35 -30 0 -27 3 -30 33 -30 18 0 39 6 46 13
10 10 12 8 9 -8 -3 -17 -12 -20 -63 -23 l-60 -3 0 83 0 83 55 5 c63 6 70 4 70
-16z m291 -56 c18 -46 36 -86 37 -90 2 -5 -8 -8 -22 -8 -21 0 -26 5 -26 26 0
23 -3 25 -37 22 -31 -2 -39 -7 -41 -25 -2 -15 -10 -23 -24 -23 -11 0 -18 3
-16 8 13 25 62 131 69 150 5 12 12 22 17 22 4 0 24 -37 43 -82z m-179 -15 c-3
-62 -8 -93 -19 -105 -17 -19 -63 -25 -63 -8 0 6 9 10 20 10 26 0 33 29 28 119
-3 65 -1 71 17 71 19 0 20 -6 17 -87z"/>
<path d="M2846 1924 c-3 -9 -6 -63 -6 -120 l0 -104 60 0 c66 0 113 18 130 49
5 11 10 45 10 76 0 49 -4 60 -29 86 -27 26 -36 29 -94 29 -50 0 -66 -4 -71
-16z"/>
<path d="M3347 1923 c-4 -3 -7 -56 -7 -116 l0 -109 66 4 c60 4 70 7 95 36 48
53 36 148 -22 178 -28 14 -120 20 -132 7z"/>
<path d="M3342 1529 l3 -134 50 -3 c105 -7 165 37 165 121 0 89 -47 132 -159
144 l-62 6 3 -134z"/>
<path d="M3862 1737 c-13 -13 -27 -38 -32 -55 l-9 -32 91 0 91 0 -6 36 c-8 51
-32 74 -77 74 -25 0 -43 -7 -58 -23z"/>
<path d="M4555 1536 c-46 -20 -65 -44 -65 -82 0 -75 69 -97 126 -40 30 30 34
40 34 85 0 51 0 51 -32 51 -18 -1 -47 -7 -63 -14z"/>
<path d="M2050 1040 c0 -44 3 -50 21 -50 36 0 59 19 59 48 0 36 -17 52 -52 52
-27 0 -28 -2 -28 -50z"/>
<path d="M1731 1017 c-25 -30 -24 -73 2 -103 22 -25 28 -27 53 -19 64 23 51
135 -15 135 -16 0 -34 -6 -40 -13z"/>
<path d="M2249 1014 c-21 -25 -16 -81 9 -106 51 -51 119 34 78 96 -19 30 -66
35 -87 10z"/>
<path d="M3932 1018 c-19 -25 -24 -60 -12 -88 21 -50 77 -52 98 -4 16 34 15
55 -4 82 -17 24 -65 30 -82 10z"/>
<path d="M3450 701 c0 -22 4 -42 8 -45 16 -9 50 6 55 24 6 25 -19 60 -44 60
-16 0 -19 -7 -19 -39z"/>
<path d="M3457 633 c-4 -3 -7 -26 -7 -50 0 -38 2 -43 23 -43 25 0 57 28 57 48
0 29 -55 63 -73 45z"/>
<path d="M2950 610 c0 -68 1 -70 25 -70 33 0 65 33 65 68 0 34 -36 72 -68 72
-21 0 -22 -5 -22 -70z"/>
<path d="M3971 622 c-15 -28 -14 -32 9 -32 21 0 26 16 11 39 -7 11 -11 10 -20
-7z"/>
</g>
</svg>
